<?xml version="1.0" encoding="UTF-8"?>
<svg xmlns="http://www.w3.org/2000/svg" id="Layer_1" data-name="Layer 1" viewBox="0 0 24 24">
  <path d="M20.841,2.846c-.104-.322-.362-.57-.688-.66-.177-.048-4.369-1.186-7.614-1.186-3.334,0-7.445,1.139-7.619,1.188-.338,.094-.601,.358-.695,.696-.016,.058-.151,.552-.325,1.36h-.37c-.552,0-1,.448-1,1s.445,.997,.995,1c-.121,.75-.236,1.596-.324,2.505h-.24c-.552,0-1,.448-1,1s.448,1,1,1h.103c-.016,.411-.025,.829-.025,1.252s.009,.841,.026,1.252h-.103c-.552,0-1,.448-1,1s.448,1,1,1h.241c.088,.908,.203,1.754,.324,2.505-.55,.002-.996,.449-.996,1s.448,1,1,1h.371c.173,.807,.308,1.301,.324,1.359,.092,.333,.349,.596,.681,.693,.165,.049,4.077,1.191,7.633,1.191s7.468-1.143,7.633-1.191c.318-.094,.569-.339,.67-.656,.049-.154,1.197-3.825,1.197-9.153s-1.149-9.001-1.198-9.154Zm-1.763,17.188c-1.152,.3-3.994,.966-6.539,.966-2.527,0-5.357-.659-6.522-.961-.297-1.256-.978-4.514-.978-8.039s.678-6.772,.977-8.032c1.206-.301,4.141-.968,6.523-.968,2.328,0,5.33,.677,6.542,.976,.3,1.153,.958,4.13,.958,8.024s-.663,6.884-.961,8.034Z"/>
  <path d="M12.539,12.892c-2.455,0-4.452,1.997-4.452,4.452,0,.552,.448,1,1,1s1-.448,1-1c0-1.352,1.1-2.452,2.452-2.452s2.452,1.1,2.452,2.452c0,.552,.448,1,1,1s1-.448,1-1c0-2.455-1.997-4.452-4.452-4.452Z"/>
  <path d="M9.842,9.928c.212,.632,.716,1.135,1.346,1.346,.448,.15,.899,.225,1.35,.225s.902-.075,1.349-.225c.631-.211,1.135-.714,1.347-1.347,.301-.896,.301-1.804,0-2.7-.212-.631-.715-1.134-1.347-1.347-.896-.3-1.804-.3-2.7,0-.63,.212-1.134,.715-1.346,1.347-.301,.896-.301,1.804,0,2.7h0Z"/>
</svg>
