<svg width="1024" height="1024" viewBox="0 0 1024 1024" fill="none" xmlns="http://www.w3.org/2000/svg">
<path d="M661.333 469.333H746.667C805.461 469.333 853.333 421.461 853.333 362.667V277.333C853.333 218.539 805.461 170.667 746.667 170.667H661.333C602.539 170.667 554.667 218.539 554.667 277.333V362.667C554.667 421.461 602.539 469.333 661.333 469.333ZM640 277.333C640 265.557 649.557 256 661.333 256H746.667C758.443 256 768 265.557 768 277.333V362.667C768 374.443 758.443 384 746.667 384H661.333C649.557 384 640 374.443 640 362.667V277.333ZM1024 725.333V810.667C1024 928.299 928.299 1024 810.667 1024H725.333C701.781 1024 682.667 1004.89 682.667 981.333C682.667 957.781 701.781 938.667 725.333 938.667H810.667C881.237 938.667 938.667 881.237 938.667 810.667V725.333C938.667 701.781 957.781 682.667 981.333 682.667C1004.89 682.667 1024 701.781 1024 725.333ZM1024 213.333V298.667C1024 322.219 1004.89 341.333 981.333 341.333C957.781 341.333 938.667 322.219 938.667 298.667V213.333C938.667 142.763 881.237 85.3333 810.667 85.3333H725.333C701.781 85.3333 682.667 66.2187 682.667 42.6667C682.667 19.1147 701.781 0 725.333 0H810.667C928.299 0 1024 95.7013 1024 213.333ZM682.667 789.333C682.667 824.661 653.995 853.333 618.667 853.333C583.339 853.333 554.667 824.661 554.667 789.333C554.667 754.005 583.339 725.333 618.667 725.333C653.995 725.333 682.667 754.005 682.667 789.333ZM789.333 554.667C824.661 554.667 853.333 583.339 853.333 618.667C853.333 653.995 824.661 682.667 789.333 682.667C754.005 682.667 725.333 653.995 725.333 618.667C725.333 583.339 754.005 554.667 789.333 554.667ZM554.667 618.667C554.667 583.339 583.339 554.667 618.667 554.667C653.995 554.667 682.667 583.339 682.667 618.667C682.667 653.995 653.995 682.667 618.667 682.667C583.339 682.667 554.667 653.995 554.667 618.667Z" fill="white"/>
<path d="M460.8 32.0002C460.8 14.3362 450.352 -0.383787 437.778 2.24021C359.052 18.6882 301.868 131.008 299.094 543.808C299.094 552.273 301.517 560.393 305.831 566.39C310.146 572.388 344.509 571.166 350.623 571.2C376.511 571.84 368.344 584.128 368.344 640V992C368.344 1000.49 370.779 1008.63 375.114 1014.63C379.448 1020.63 385.328 1024 391.458 1024H437.686C443.816 1024 449.695 1020.63 454.03 1014.63C458.365 1008.63 460.8 1000.49 460.8 992V32.0002ZM56.3041 0.000212614C59.3693 0.000212614 62.3088 1.68592 64.4762 4.6865C66.6436 7.68708 67.8612 11.7567 67.8612 16.0002V343.808C67.8244 345.981 68.4125 348.085 69.4962 349.657C70.5799 351.229 72.0703 352.141 73.6397 352.192C75.209 352.243 76.7287 351.429 77.8644 349.929C79.0001 348.428 79.6588 346.365 79.6956 344.192L90.4667 15.2322C90.6097 11.1122 91.8964 7.22775 94.0584 4.38962C96.2204 1.55149 99.0906 -0.0210384 102.07 0.000212614H126.201C129.172 -0.00452896 132.031 1.57535 134.183 4.41179C136.335 7.24823 137.615 11.1233 137.758 15.2322L148.529 344.192C148.566 346.365 149.225 348.428 150.36 349.929C151.496 351.429 153.016 352.243 154.585 352.192C156.154 352.141 157.645 351.229 158.729 349.657C159.812 348.085 160.4 345.981 160.364 343.808V16.0002C160.364 11.7678 161.575 7.70782 163.732 4.70907C165.89 1.71032 168.817 0.0171422 171.874 0.000212614H185.281C191.073 0.00394759 196.653 3.01833 200.916 8.44665C205.18 13.875 207.816 21.3215 208.302 29.3122L227.857 353.792C229.253 376.899 225.248 400.014 216.434 419.731C207.619 439.447 194.462 454.719 178.901 463.296L176.451 464.704C168.322 469.173 161.386 477.003 156.588 487.127C151.79 497.251 149.363 509.177 149.639 521.28L158.931 960C158.931 976.482 161.031 1001.15 152.613 1012.8C144.195 1024.45 125.948 1022.14 114.043 1022.14C102.138 1022.14 87.0656 1024.45 78.6476 1012.8C70.2295 1001.15 69.1555 976.482 69.1555 960L78.4936 521.28C78.7689 509.177 76.3421 497.251 71.5441 487.127C66.7461 477.003 59.8102 469.173 51.6813 464.704L49.2312 463.296C33.6627 454.716 20.4992 439.434 11.6841 419.704C2.86901 399.975 -1.13061 376.845 0.275689 353.728L19.8764 29.3122C20.3629 21.3215 22.9988 13.875 27.2622 8.44665C31.5256 3.01833 37.1057 0.00394759 42.898 0.000212614H56.3041Z" fill="white"/>
</svg>
