<svg width="680" height="104" viewBox="0 0 680 104" fill="none" xmlns="http://www.w3.org/2000/svg">
<path d="M22.7733 35.28C29.8773 35.28 36.0853 36.656 41.3973 39.408C46.7733 42.096 50.9013 46 53.7812 51.12C56.7253 56.176 58.1973 62.096 58.1973 68.88C58.1973 75.664 56.7253 81.552 53.7812 86.544C50.9013 91.536 46.7733 95.376 41.3973 98.064C36.0853 100.688 29.8773 102 22.7733 102H0.98125V35.28H22.7733ZM22.7733 93.072C30.5813 93.072 36.5653 90.96 40.7253 86.736C44.8853 82.512 46.9653 76.56 46.9653 68.88C46.9653 61.136 44.8853 55.088 40.7253 50.736C36.5653 46.384 30.5813 44.208 22.7733 44.208H11.9253V93.072H22.7733ZM65.3958 75.312C65.3958 70 66.4838 65.296 68.6598 61.2C70.8998 57.104 73.9078 53.936 77.6838 51.696C81.5238 49.392 85.7478 48.24 90.3558 48.24C94.5158 48.24 98.1318 49.072 101.204 50.736C104.34 52.336 106.836 54.352 108.692 56.784V49.104H119.732V102H108.692V94.128C106.836 96.624 104.308 98.704 101.108 100.368C97.9078 102.032 94.2598 102.864 90.1638 102.864C85.6198 102.864 81.4598 101.712 77.6838 99.408C73.9078 97.04 70.8998 93.776 68.6598 89.616C66.4838 85.392 65.3958 80.624 65.3958 75.312ZM108.692 75.504C108.692 71.856 107.924 68.688 106.388 66C104.916 63.312 102.964 61.264 100.532 59.856C98.0998 58.448 95.4758 57.744 92.6598 57.744C89.8438 57.744 87.2198 58.448 84.7878 59.856C82.3558 61.2 80.3718 63.216 78.8358 65.904C77.3638 68.528 76.6278 71.664 76.6278 75.312C76.6278 78.96 77.3638 82.16 78.8358 84.912C80.3718 87.664 82.3558 89.776 84.7878 91.248C87.2838 92.656 89.9078 93.36 92.6598 93.36C95.4758 93.36 98.0998 92.656 100.532 91.248C102.964 89.84 104.916 87.792 106.388 85.104C107.924 82.352 108.692 79.152 108.692 75.504ZM130.458 75.312C130.458 70 131.546 65.296 133.722 61.2C135.962 57.104 138.97 53.936 142.746 51.696C146.586 49.392 150.81 48.24 155.418 48.24C159.578 48.24 163.194 49.072 166.266 50.736C169.402 52.336 171.898 54.352 173.754 56.784V49.104H184.794V102H173.754V94.128C171.898 96.624 169.37 98.704 166.17 100.368C162.97 102.032 159.322 102.864 155.226 102.864C150.682 102.864 146.522 101.712 142.746 99.408C138.97 97.04 135.962 93.776 133.722 89.616C131.546 85.392 130.458 80.624 130.458 75.312ZM173.754 75.504C173.754 71.856 172.986 68.688 171.45 66C169.978 63.312 168.026 61.264 165.594 59.856C163.162 58.448 160.538 57.744 157.722 57.744C154.906 57.744 152.282 58.448 149.85 59.856C147.418 61.2 145.434 63.216 143.898 65.904C142.426 68.528 141.69 71.664 141.69 75.312C141.69 78.96 142.426 82.16 143.898 84.912C145.434 87.664 147.418 89.776 149.85 91.248C152.346 92.656 154.97 93.36 157.722 93.36C160.538 93.36 163.162 92.656 165.594 91.248C168.026 89.84 169.978 87.792 171.45 85.104C172.986 82.352 173.754 79.152 173.754 75.504ZM263.201 48.24C267.361 48.24 271.073 49.104 274.337 50.832C277.665 52.56 280.257 55.12 282.113 58.512C284.033 61.904 284.993 66 284.993 70.8V102H274.145V72.432C274.145 67.696 272.961 64.08 270.593 61.584C268.225 59.024 264.993 57.744 260.897 57.744C256.801 57.744 253.537 59.024 251.105 61.584C248.737 64.08 247.553 67.696 247.553 72.432V102H236.705V72.432C236.705 67.696 235.521 64.08 233.153 61.584C230.785 59.024 227.553 57.744 223.457 57.744C219.361 57.744 216.097 59.024 213.665 61.584C211.297 64.08 210.113 67.696 210.113 72.432V102H199.169V49.104H210.113V55.152C211.905 52.976 214.177 51.28 216.929 50.064C219.681 48.848 222.625 48.24 225.761 48.24C229.985 48.24 233.761 49.136 237.089 50.928C240.417 52.72 242.977 55.312 244.769 58.704C246.369 55.504 248.865 52.976 252.257 51.12C255.649 49.2 259.297 48.24 263.201 48.24ZM295.271 75.312C295.271 70 296.359 65.296 298.535 61.2C300.775 57.104 303.783 53.936 307.559 51.696C311.399 49.392 315.655 48.24 320.327 48.24C323.783 48.24 327.175 49.008 330.503 50.544C333.895 52.016 336.583 54 338.567 56.496V30.96H349.607V102H338.567V94.032C336.775 96.592 334.279 98.704 331.079 100.368C327.943 102.032 324.327 102.864 320.231 102.864C315.623 102.864 311.399 101.712 307.559 99.408C303.783 97.04 300.775 93.776 298.535 89.616C296.359 85.392 295.271 80.624 295.271 75.312ZM338.567 75.504C338.567 71.856 337.799 68.688 336.263 66C334.791 63.312 332.839 61.264 330.407 59.856C327.975 58.448 325.351 57.744 322.535 57.744C319.719 57.744 317.095 58.448 314.663 59.856C312.231 61.2 310.247 63.216 308.711 65.904C307.239 68.528 306.503 71.664 306.503 75.312C306.503 78.96 307.239 82.16 308.711 84.912C310.247 87.664 312.231 89.776 314.663 91.248C317.159 92.656 319.783 93.36 322.535 93.36C325.351 93.36 327.975 92.656 330.407 91.248C332.839 89.84 334.791 87.792 336.263 85.104C337.799 82.352 338.567 79.152 338.567 75.504ZM411.885 49.104V102H400.941V95.76C399.213 97.936 396.941 99.664 394.125 100.944C391.373 102.16 388.429 102.768 385.293 102.768C381.133 102.768 377.389 101.904 374.061 100.176C370.797 98.448 368.205 95.888 366.285 92.496C364.429 89.104 363.501 85.008 363.501 80.208V49.104H374.349V78.576C374.349 83.312 375.533 86.96 377.901 89.52C380.269 92.016 383.501 93.264 387.597 93.264C391.693 93.264 394.925 92.016 397.293 89.52C399.725 86.96 400.941 83.312 400.941 78.576V49.104H411.885ZM474.229 49.104V102H463.285V95.76C461.557 97.936 459.285 99.664 456.469 100.944C453.717 102.16 450.773 102.768 447.637 102.768C443.477 102.768 439.733 101.904 436.405 100.176C433.141 98.448 430.549 95.888 428.629 92.496C426.773 89.104 425.845 85.008 425.845 80.208V49.104H436.693V78.576C436.693 83.312 437.877 86.96 440.245 89.52C442.613 92.016 445.845 93.264 449.941 93.264C454.037 93.264 457.269 92.016 459.637 89.52C462.069 86.96 463.285 83.312 463.285 78.576V49.104H474.229Z" fill="#343434"/>
<path d="M22.7733 35.28C29.8773 35.28 36.0853 36.656 41.3973 39.408C46.7733 42.096 50.9013 46 53.7812 51.12C56.7253 56.176 58.1973 62.096 58.1973 68.88C58.1973 75.664 56.7253 81.552 53.7812 86.544C50.9013 91.536 46.7733 95.376 41.3973 98.064C36.0853 100.688 29.8773 102 22.7733 102H0.98125V35.28H22.7733ZM22.7733 93.072C30.5813 93.072 36.5653 90.96 40.7253 86.736C44.8853 82.512 46.9653 76.56 46.9653 68.88C46.9653 61.136 44.8853 55.088 40.7253 50.736C36.5653 46.384 30.5813 44.208 22.7733 44.208H11.9253V93.072H22.7733ZM65.3958 75.312C65.3958 70 66.4838 65.296 68.6598 61.2C70.8998 57.104 73.9078 53.936 77.6838 51.696C81.5238 49.392 85.7478 48.24 90.3558 48.24C94.5158 48.24 98.1318 49.072 101.204 50.736C104.34 52.336 106.836 54.352 108.692 56.784V49.104H119.732V102H108.692V94.128C106.836 96.624 104.308 98.704 101.108 100.368C97.9078 102.032 94.2598 102.864 90.1638 102.864C85.6198 102.864 81.4598 101.712 77.6838 99.408C73.9078 97.04 70.8998 93.776 68.6598 89.616C66.4838 85.392 65.3958 80.624 65.3958 75.312ZM108.692 75.504C108.692 71.856 107.924 68.688 106.388 66C104.916 63.312 102.964 61.264 100.532 59.856C98.0998 58.448 95.4758 57.744 92.6598 57.744C89.8438 57.744 87.2198 58.448 84.7878 59.856C82.3558 61.2 80.3718 63.216 78.8358 65.904C77.3638 68.528 76.6278 71.664 76.6278 75.312C76.6278 78.96 77.3638 82.16 78.8358 84.912C80.3718 87.664 82.3558 89.776 84.7878 91.248C87.2838 92.656 89.9078 93.36 92.6598 93.36C95.4758 93.36 98.0998 92.656 100.532 91.248C102.964 89.84 104.916 87.792 106.388 85.104C107.924 82.352 108.692 79.152 108.692 75.504ZM130.458 75.312C130.458 70 131.546 65.296 133.722 61.2C135.962 57.104 138.97 53.936 142.746 51.696C146.586 49.392 150.81 48.24 155.418 48.24C159.578 48.24 163.194 49.072 166.266 50.736C169.402 52.336 171.898 54.352 173.754 56.784V49.104H184.794V102H173.754V94.128C171.898 96.624 169.37 98.704 166.17 100.368C162.97 102.032 159.322 102.864 155.226 102.864C150.682 102.864 146.522 101.712 142.746 99.408C138.97 97.04 135.962 93.776 133.722 89.616C131.546 85.392 130.458 80.624 130.458 75.312ZM173.754 75.504C173.754 71.856 172.986 68.688 171.45 66C169.978 63.312 168.026 61.264 165.594 59.856C163.162 58.448 160.538 57.744 157.722 57.744C154.906 57.744 152.282 58.448 149.85 59.856C147.418 61.2 145.434 63.216 143.898 65.904C142.426 68.528 141.69 71.664 141.69 75.312C141.69 78.96 142.426 82.16 143.898 84.912C145.434 87.664 147.418 89.776 149.85 91.248C152.346 92.656 154.97 93.36 157.722 93.36C160.538 93.36 163.162 92.656 165.594 91.248C168.026 89.84 169.978 87.792 171.45 85.104C172.986 82.352 173.754 79.152 173.754 75.504ZM263.201 48.24C267.361 48.24 271.073 49.104 274.337 50.832C277.665 52.56 280.257 55.12 282.113 58.512C284.033 61.904 284.993 66 284.993 70.8V102H274.145V72.432C274.145 67.696 272.961 64.08 270.593 61.584C268.225 59.024 264.993 57.744 260.897 57.744C256.801 57.744 253.537 59.024 251.105 61.584C248.737 64.08 247.553 67.696 247.553 72.432V102H236.705V72.432C236.705 67.696 235.521 64.08 233.153 61.584C230.785 59.024 227.553 57.744 223.457 57.744C219.361 57.744 216.097 59.024 213.665 61.584C211.297 64.08 210.113 67.696 210.113 72.432V102H199.169V49.104H210.113V55.152C211.905 52.976 214.177 51.28 216.929 50.064C219.681 48.848 222.625 48.24 225.761 48.24C229.985 48.24 233.761 49.136 237.089 50.928C240.417 52.72 242.977 55.312 244.769 58.704C246.369 55.504 248.865 52.976 252.257 51.12C255.649 49.2 259.297 48.24 263.201 48.24ZM295.271 75.312C295.271 70 296.359 65.296 298.535 61.2C300.775 57.104 303.783 53.936 307.559 51.696C311.399 49.392 315.655 48.24 320.327 48.24C323.783 48.24 327.175 49.008 330.503 50.544C333.895 52.016 336.583 54 338.567 56.496V30.96H349.607V102H338.567V94.032C336.775 96.592 334.279 98.704 331.079 100.368C327.943 102.032 324.327 102.864 320.231 102.864C315.623 102.864 311.399 101.712 307.559 99.408C303.783 97.04 300.775 93.776 298.535 89.616C296.359 85.392 295.271 80.624 295.271 75.312ZM338.567 75.504C338.567 71.856 337.799 68.688 336.263 66C334.791 63.312 332.839 61.264 330.407 59.856C327.975 58.448 325.351 57.744 322.535 57.744C319.719 57.744 317.095 58.448 314.663 59.856C312.231 61.2 310.247 63.216 308.711 65.904C307.239 68.528 306.503 71.664 306.503 75.312C306.503 78.96 307.239 82.16 308.711 84.912C310.247 87.664 312.231 89.776 314.663 91.248C317.159 92.656 319.783 93.36 322.535 93.36C325.351 93.36 327.975 92.656 330.407 91.248C332.839 89.84 334.791 87.792 336.263 85.104C337.799 82.352 338.567 79.152 338.567 75.504ZM411.885 49.104V102H400.941V95.76C399.213 97.936 396.941 99.664 394.125 100.944C391.373 102.16 388.429 102.768 385.293 102.768C381.133 102.768 377.389 101.904 374.061 100.176C370.797 98.448 368.205 95.888 366.285 92.496C364.429 89.104 363.501 85.008 363.501 80.208V49.104H374.349V78.576C374.349 83.312 375.533 86.96 377.901 89.52C380.269 92.016 383.501 93.264 387.597 93.264C391.693 93.264 394.925 92.016 397.293 89.52C399.725 86.96 400.941 83.312 400.941 78.576V49.104H411.885ZM474.229 49.104V102H463.285V95.76C461.557 97.936 459.285 99.664 456.469 100.944C453.717 102.16 450.773 102.768 447.637 102.768C443.477 102.768 439.733 101.904 436.405 100.176C433.141 98.448 430.549 95.888 428.629 92.496C426.773 89.104 425.845 85.008 425.845 80.208V49.104H436.693V78.576C436.693 83.312 437.877 86.96 440.245 89.52C442.613 92.016 445.845 93.264 449.941 93.264C454.037 93.264 457.269 92.016 459.637 89.52C462.069 86.96 463.285 83.312 463.285 78.576V49.104H474.229Z" fill="black" fill-opacity="0.2"/>
<path d="M575.421 99.952L548.669 73.2C547.303 71.8347 546.621 70.3413 546.621 68.72C546.621 67.0133 547.303 65.4773 548.669 64.112C550.034 62.7467 551.527 62.064 553.149 62.064C554.855 62.064 556.391 62.7467 557.757 64.112L584.509 90.992C585.789 92.3573 586.429 93.8507 586.429 95.472C586.514 97.0933 585.874 98.5867 584.509 99.952C583.143 101.317 581.607 102 579.901 102C578.279 102 576.786 101.317 575.421 99.952ZM540.477 103.28C532.967 103.28 526.098 102.043 519.869 99.568C513.639 97.008 508.263 93.4667 503.741 88.944C499.303 84.336 495.847 78.9173 493.373 72.688C490.898 66.3733 489.661 59.4613 489.661 51.952C489.661 44.4427 490.898 37.5733 493.373 31.344C495.847 25.1147 499.303 19.7387 503.741 15.216C508.263 10.608 513.639 7.06666 519.869 4.592C526.098 2.032 532.967 0.751999 540.477 0.751999C547.986 0.751999 554.813 2.032 560.957 4.592C567.186 7.06666 572.562 10.608 577.085 15.216C581.607 19.7387 585.106 25.1147 587.581 31.344C590.055 37.5733 591.293 44.4427 591.293 51.952C591.293 59.4613 590.055 66.3733 587.581 72.688C585.106 78.9173 581.607 84.336 577.085 88.944C572.562 93.4667 567.186 97.008 560.957 99.568C554.813 102.043 547.986 103.28 540.477 103.28ZM540.477 91.248C546.023 91.248 551.101 90.2667 555.709 88.304C560.402 86.256 564.455 83.4827 567.869 79.984C571.282 76.4 573.885 72.2187 575.677 67.44C577.554 62.6613 578.493 57.4987 578.493 51.952C578.493 46.4053 577.554 41.2427 575.677 36.464C573.885 31.6853 571.282 27.5467 567.869 24.048C564.455 20.464 560.402 17.6907 555.709 15.728C551.101 13.7653 546.023 12.784 540.477 12.784C534.93 12.784 529.81 13.7653 525.117 15.728C520.509 17.6907 516.498 20.464 513.085 24.048C509.757 27.5467 507.154 31.6853 505.277 36.464C503.399 41.2427 502.461 46.4053 502.461 51.952C502.461 57.4987 503.399 62.6613 505.277 67.44C507.154 72.2187 509.757 76.4 513.085 79.984C516.498 83.4827 520.509 86.256 525.117 88.304C529.81 90.2667 534.93 91.248 540.477 91.248ZM618.8 102C616.922 102 615.344 101.36 614.064 100.08C612.784 98.8 612.144 97.2213 612.144 95.344V8.688C612.144 6.72533 612.784 5.14666 614.064 3.952C615.344 2.672 616.922 2.032 618.8 2.032H641.84C648.24 2.032 653.914 3.39733 658.864 6.128C663.813 8.77333 667.653 12.4427 670.384 17.136C673.2 21.8293 674.608 27.2907 674.608 33.52C674.608 39.3227 673.2 44.4853 670.384 49.008C667.653 53.5307 663.813 57.072 658.864 59.632C653.914 62.192 648.24 63.472 641.84 63.472H625.456V95.344C625.456 97.2213 624.816 98.8 623.536 100.08C622.341 101.36 620.762 102 618.8 102ZM671.92 102C670.725 102 669.616 101.744 668.592 101.232C667.653 100.72 666.842 99.9093 666.16 98.8L643.12 61.68L656.048 57.968L677.04 91.76C678.576 94.2347 678.789 96.5813 677.68 98.8C676.57 100.933 674.65 102 671.92 102ZM625.456 51.184H641.84C645.765 51.184 649.221 50.4587 652.208 49.008C655.194 47.472 657.541 45.3813 659.248 42.736C660.954 40.0053 661.808 36.9333 661.808 33.52C661.808 29.7653 660.954 26.4373 659.248 23.536C657.541 20.6347 655.194 18.3733 652.208 16.752C649.221 15.1307 645.765 14.32 641.84 14.32H625.456V51.184Z" fill="#E44641"/>
</svg>
