<svg width="256" height="256" viewBox="0 0 256 256" fill="none" xmlns="http://www.w3.org/2000/svg">
<path d="M133.976 196.2C117.843 196.2 103.763 193.047 91.7361 186.74C79.8561 180.287 70.6894 171.12 64.2361 159.24C57.9294 147.36 54.7761 133.353 54.7761 117.22C54.7761 101.087 57.9294 87.08 64.2361 75.2C70.6894 63.1733 79.8561 53.9333 91.7361 47.48C103.616 41.0267 117.623 37.8 133.756 37.8C146.956 37.8 159.203 40.0733 170.496 44.62C181.789 49.1667 190.296 55.3267 196.016 63.1C197.629 65.4467 198.436 67.5733 198.436 69.48C198.436 72.7067 196.749 75.5667 193.376 78.06C191.469 79.2333 189.489 79.82 187.436 79.82C185.529 79.82 183.623 79.38 181.716 78.5C179.956 77.62 178.416 76.4467 177.096 74.98C172.256 69.1133 166.243 64.7867 159.056 62C152.016 59.2133 143.583 57.82 133.756 57.82C116.889 57.82 103.689 63.1 94.1561 73.66C84.7694 84.0733 80.0761 98.5933 80.0761 117.22C80.0761 135.553 84.8428 150 94.3761 160.56C103.909 170.973 117.109 176.18 133.976 176.18C153.923 176.18 169.249 170.46 179.956 159.02C183.476 155.5 187.069 153.74 190.736 153.74C193.083 153.74 195.209 154.473 197.116 155.94C200.049 158.433 201.516 161.147 201.516 164.08C201.516 166.573 200.636 168.92 198.876 171.12C192.569 178.893 183.696 185.053 172.256 189.6C160.816 194 148.056 196.2 133.976 196.2Z" fill="white"/>
<rect x="50" y="219" width="156" height="24" rx="12" fill="white"/>
</svg>
